<svg width="32" height="32" viewBox="0 0 32 32" fill="none" xmlns="http://www.w3.org/2000/svg">
<path d="M27.8372 11.2889H22.3934H21.7277C18.9185 11.2889 17.0205 12.2378 16.1093 14.1308C15.1603 12.2331 13.267 11.2889 10.4908 11.2889H9.78735H4.3436L4.31055 21.646C4.31055 25.8568 6.45405 28 10.6655 28H15.3727H16.8128H21.52C25.7315 28 27.875 25.8568 27.875 21.646L27.8372 11.2889Z" fill="#54BCA3"/>
<path d="M18.9668 15.7825H24.3067C24.6041 15.7825 24.8496 16.0232 24.8496 16.3253C24.8496 16.6227 24.6088 16.8682 24.3067 16.8682H18.9668C18.6693 16.8682 18.4238 16.6275 18.4238 16.3253C18.4285 16.0232 18.6693 15.7825 18.9668 15.7825Z" fill="white"/>
<path d="M18.9668 19.3663H24.3067C24.6041 19.3663 24.8496 19.6071 24.8496 19.9092C24.8496 20.2066 24.6088 20.4521 24.3067 20.4521H18.9668C18.6693 20.4521 18.4238 20.2113 18.4238 19.9092C18.4285 19.6071 18.6693 19.3663 18.9668 19.3663Z" fill="white"/>
<path d="M18.9668 22.949H24.3067C24.6041 22.949 24.8496 23.1897 24.8496 23.4918C24.8496 23.7892 24.6088 24.0347 24.3067 24.0347H18.9668C18.6693 24.0347 18.4238 23.794 18.4238 23.4918C18.4285 23.1897 18.6693 22.949 18.9668 22.949Z" fill="white"/>
<path d="M16.1104 10.3917C17.8757 10.3917 19.3068 8.9609 19.3068 7.19587C19.3068 5.43084 17.8757 4 16.1104 4C14.3451 4 12.9141 5.43084 12.9141 7.19587C12.9141 8.9609 14.3451 10.3917 16.1104 10.3917Z" fill="#6FE2C1"/>
<path d="M7.90819 15.7825H13.2481C13.5455 15.7825 13.791 16.0232 13.791 16.3253C13.791 16.6227 13.5502 16.8682 13.2481 16.8682H7.90819C7.61075 16.8682 7.36523 16.6275 7.36523 16.3253C7.36523 16.0232 7.60602 15.7825 7.90819 15.7825Z" fill="white"/>
<path d="M7.90819 19.3652H13.2481C13.5455 19.3652 13.791 19.606 13.791 19.9081C13.791 20.2055 13.5502 20.451 13.2481 20.451H7.90819C7.61075 20.451 7.36523 20.2102 7.36523 19.9081C7.36523 19.606 7.60602 19.3652 7.90819 19.3652Z" fill="white"/>
<path d="M7.90819 22.949H13.2481C13.5455 22.949 13.791 23.1897 13.791 23.4918C13.791 23.7892 13.5502 24.0347 13.2481 24.0347H7.90819C7.61075 24.0347 7.36523 23.794 7.36523 23.4918C7.36523 23.1897 7.60602 22.949 7.90819 22.949Z" fill="white"/>
</svg>
