<svg width="203" height="44" viewBox="0 0 203 44" fill="none" xmlns="http://www.w3.org/2000/svg">
<path d="M60.4391 36.2444C58.8724 35.7425 57.5307 34.9982 56.4141 34.0202L57.6778 31.4152C58.8637 32.3758 60.0929 33.0595 61.3566 33.4836C62.6204 33.9077 64.04 34.1154 65.6154 34.1154C67.4158 34.1154 68.8094 33.7779 69.7876 33.1028C70.7657 32.4277 71.2591 31.4757 71.2591 30.2468C71.2591 29.1996 70.8003 28.412 69.8914 27.9014C68.9825 27.3908 67.5197 26.9061 65.5115 26.4474C63.5985 26.0407 62.0231 25.5733 60.7853 25.0454C59.5562 24.5174 58.5867 23.8078 57.8942 22.9077C57.2018 22.0076 56.8469 20.8565 56.8469 19.4718C56.8469 18.0611 57.2191 16.8148 57.9635 15.7417C58.7079 14.6685 59.7639 13.829 61.1316 13.2232C62.4992 12.6174 64.0833 12.3145 65.8924 12.3145C67.5803 12.3145 69.173 12.5741 70.6705 13.0847C72.1679 13.5953 73.3884 14.331 74.3492 15.2916L73.1201 17.888C72.0035 16.9793 70.8522 16.2956 69.6837 15.8542C68.5065 15.4128 67.26 15.1878 65.9356 15.1878C64.2044 15.1878 62.8368 15.5513 61.85 16.2696C60.8546 16.9879 60.3612 17.9832 60.3612 19.2641C60.3612 20.3632 60.794 21.1854 61.6596 21.748C62.5252 22.3105 63.9188 22.8125 65.8318 23.2712C67.84 23.7299 69.4673 24.1972 70.7051 24.6905C71.9515 25.1838 72.9383 25.8503 73.6827 26.7071C74.4272 27.5639 74.7994 28.6717 74.7994 30.0477C74.7994 31.4411 74.4272 32.6614 73.6827 33.7086C72.9383 34.7558 71.8823 35.5694 70.4973 36.1406C69.1124 36.7118 67.4764 36.9974 65.5894 36.9974C63.7197 36.9974 61.9972 36.7464 60.4391 36.2444Z" fill="white"/>
<path d="M80.9725 35.9079C79.726 35.1983 78.7739 34.1943 78.0987 32.8788C77.4235 31.5633 77.0859 30.0401 77.0859 28.3092C77.0859 26.5523 77.4235 25.0205 78.0987 23.705C78.7739 22.3895 79.726 21.3855 80.9725 20.6758C82.2189 19.9662 83.6558 19.6113 85.3005 19.6113C86.9451 19.6113 88.3906 19.9662 89.6284 20.6758C90.8749 21.3855 91.8271 22.3895 92.5022 23.705C93.1774 25.0205 93.515 26.5523 93.515 28.3092C93.515 30.0401 93.1774 31.5633 92.5022 32.8788C91.8271 34.1943 90.8749 35.1983 89.6284 35.9079C88.382 36.6176 86.9451 36.9725 85.3005 36.9725C83.6645 36.9638 82.2189 36.6176 80.9725 35.9079ZM88.8148 32.7231C89.6284 31.7191 90.0266 30.2478 90.0266 28.3092C90.0266 26.3965 89.6198 24.9253 88.7975 23.9127C87.9752 22.9001 86.8153 22.3895 85.3091 22.3895C83.803 22.3895 82.6431 22.9001 81.8208 23.9127C80.9984 24.9253 80.5916 26.3965 80.5916 28.3092C80.5916 30.2478 80.9984 31.7191 81.8034 32.7231C82.6171 33.727 83.7857 34.229 85.3091 34.229C86.8326 34.229 88.0011 33.727 88.8148 32.7231Z" fill="white"/>
<path d="M111.309 20.0254V36.7288H107.959V34.0285C107.431 34.9892 106.713 35.7162 105.786 36.2182C104.86 36.7201 103.83 36.9711 102.688 36.9711C98.6279 36.9711 96.5938 34.7382 96.5938 30.2638V20.0254H100.047V30.2205C100.047 31.5706 100.324 32.5573 100.87 33.1977C101.415 33.8381 102.263 34.1584 103.406 34.1584C104.748 34.1584 105.83 33.7256 106.643 32.8602C107.457 31.9947 107.855 30.8436 107.855 29.407V20.0254H111.309Z" fill="white"/>
<path d="M115.453 36.7306V12.6016H118.907V36.7306H115.453Z" fill="white"/>
<path d="M128.805 36.7297V11.2246H132.458V36.7297H128.805Z" fill="white"/>
<path d="M151.048 28.5175H138.566C138.834 32.2563 140.687 34.1257 144.141 34.1257C146.166 34.1257 148.001 33.4593 149.637 32.1351L150.762 34.7055C149.94 35.4065 148.927 35.9604 147.724 36.3672C146.521 36.774 145.292 36.9817 144.037 36.9817C141.215 36.9817 138.99 36.1768 137.363 34.5584C135.736 32.94 134.922 30.7157 134.922 27.8684C134.922 26.0596 135.277 24.4585 135.987 23.0564C136.696 21.6544 137.7 20.5726 138.99 19.8023C140.28 19.032 141.743 18.6426 143.387 18.6426C145.776 18.6426 147.646 19.4128 149.014 20.9534C150.373 22.4939 151.057 24.6316 151.057 27.3578V28.5175H151.048ZM140.107 22.641C139.276 23.5238 138.774 24.7787 138.601 26.4231H147.897C147.828 24.7873 147.412 23.5238 146.651 22.641C145.889 21.7582 144.824 21.3168 143.448 21.3168C142.054 21.3168 140.938 21.7582 140.107 22.641Z" fill="white"/>
<path d="M164.144 34.0462L163.962 36.8329C163.356 36.9281 162.733 36.9801 162.084 36.9801C159.79 36.9801 158.085 36.4175 156.959 35.3011C155.834 34.176 155.28 32.5576 155.28 30.4372V21.8951H151.844V19.0737H155.28V13.7598H158.933V19.0737H163.78V21.8951H158.933V30.2901C158.933 32.8691 160.128 34.1587 162.517 34.1587C163.071 34.1587 163.616 34.124 164.144 34.0462Z" fill="white"/>
<path d="M174.683 34.0462L174.501 36.8329C173.895 36.9281 173.272 36.9801 172.623 36.9801C170.329 36.9801 168.624 36.4175 167.498 35.3011C166.373 34.176 165.819 32.5576 165.819 30.4372V21.8951H162.383V19.0737H165.819V13.7598H169.472V19.0737H174.319V21.8951H169.472V30.2901C169.472 32.8691 170.667 34.1587 173.056 34.1587C173.61 34.1587 174.146 34.124 174.683 34.0462Z" fill="white"/>
<path d="M190.415 28.5175H177.933C178.202 32.2563 180.054 34.1257 183.508 34.1257C185.533 34.1257 187.368 33.4593 189.004 32.1351L190.129 34.7055C189.307 35.4065 188.294 35.9604 187.091 36.3672C185.888 36.774 184.659 36.9817 183.404 36.9817C180.582 36.9817 178.357 36.1768 176.73 34.5584C175.103 32.94 174.289 30.7157 174.289 27.8684C174.289 26.0596 174.644 24.4585 175.354 23.0564C176.064 21.6544 177.068 20.5726 178.357 19.8023C179.647 19.032 181.11 18.6426 182.755 18.6426C185.144 18.6426 187.013 19.4128 188.381 20.9534C189.74 22.4939 190.424 24.6316 190.424 27.3578V28.5175H190.415ZM179.474 22.641C178.643 23.5238 178.141 24.7787 177.968 26.4231H187.264C187.195 24.7873 186.78 23.5238 186.018 22.641C185.256 21.7582 184.191 21.3168 182.815 21.3168C181.422 21.3168 180.305 21.7582 179.474 22.641Z" fill="white"/>
<path d="M203.001 21.715L200.793 21.9313C199.054 22.0958 197.807 22.6323 197.045 23.5238C196.284 24.4152 195.903 25.549 195.903 26.925V36.7307H192.25V19.0753H195.799V22.1477C196.742 20.0706 198.655 18.9282 201.555 18.7118L202.75 18.6426L203.001 21.715Z" fill="white"/>
<path d="M43.1327 13.3633H33.1524H31.9319C26.7816 13.3633 23.3019 15.1029 21.6313 18.5734C19.8914 15.0942 16.4204 13.3633 11.3307 13.3633H10.0409H0.0605918L0 32.3515C0 40.0714 3.92981 44.0006 11.6509 44.0006H20.281H22.921H31.551C39.2722 44.0006 43.202 40.0714 43.202 32.3515L43.1327 13.3633Z" fill="#54BCA3"/>
<path d="M26.8704 21.6016H36.6603C37.2057 21.6016 37.6558 22.0429 37.6558 22.5968C37.6558 23.1421 37.2143 23.5921 36.6603 23.5921H26.8704C26.3251 23.5921 25.875 23.1507 25.875 22.5968C25.8837 22.0429 26.3251 21.6016 26.8704 21.6016Z" fill="white"/>
<path d="M26.8704 28.1719H36.6603C37.2057 28.1719 37.6558 28.6133 37.6558 29.1672C37.6558 29.7124 37.2143 30.1624 36.6603 30.1624H26.8704C26.3251 30.1624 25.875 29.7211 25.875 29.1672C25.8837 28.6133 26.3251 28.1719 26.8704 28.1719Z" fill="white"/>
<path d="M26.8704 34.7402H36.6603C37.2057 34.7402 37.6558 35.1816 37.6558 35.7355C37.6558 36.2808 37.2143 36.7308 36.6603 36.7308H26.8704C26.3251 36.7308 25.875 36.2894 25.875 35.7355C25.8837 35.1816 26.3251 34.7402 26.8704 34.7402Z" fill="white"/>
<path d="M21.6335 11.7183C24.87 11.7183 27.4936 9.09509 27.4936 5.85917C27.4936 2.62324 24.87 0 21.6335 0C18.3971 0 15.7734 2.62324 15.7734 5.85917C15.7734 9.09509 18.3971 11.7183 21.6335 11.7183Z" fill="#6FE2C1"/>
<path d="M6.597 21.6016H16.3869C16.9322 21.6016 17.3823 22.0429 17.3823 22.5968C17.3823 23.1421 16.9409 23.5921 16.3869 23.5921H6.597C6.05167 23.5921 5.60156 23.1507 5.60156 22.5968C5.60156 22.0429 6.04302 21.6016 6.597 21.6016Z" fill="white"/>
<path d="M6.597 28.1699H16.3869C16.9322 28.1699 17.3823 28.6113 17.3823 29.1652C17.3823 29.7104 16.9409 30.1605 16.3869 30.1605H6.597C6.05167 30.1605 5.60156 29.7191 5.60156 29.1652C5.60156 28.6113 6.04302 28.1699 6.597 28.1699Z" fill="white"/>
<path d="M6.597 34.7402H16.3869C16.9322 34.7402 17.3823 35.1816 17.3823 35.7355C17.3823 36.2808 16.9409 36.7308 16.3869 36.7308H6.597C6.05167 36.7308 5.60156 36.2894 5.60156 35.7355C5.60156 35.1816 6.04302 34.7402 6.597 34.7402Z" fill="white"/>
</svg>
